<svg width="13" height="13" viewBox="0 0 13 13" fill="none" xmlns="http://www.w3.org/2000/svg">
<defs>
<clipPath id="clip0_555_307">
<rect width="12.6022" height="12.6008" fill="white"/>
</clipPath>
</defs>
<g clip-path="url(#clip0_555_307)">
<path d="M6.29887 12.6009C9.76536 12.6009 12.6022 9.76715 12.6022 6.30204C12.6022 2.83554 9.76398 0.00317383 6.29748 0.00317383C2.83685 0.00317383 0 2.83554 0 6.30204C0 9.76715 2.83823 12.6009 6.29887 12.6009ZM6.29887 10.7722C3.82421 10.7722 1.83009 8.7767 1.83009 6.30204C1.83009 3.82738 3.82283 1.83188 6.29748 1.83188C8.77214 1.83188 10.7735 3.82738 10.7735 6.30204C10.7735 8.7767 8.77352 10.7722 6.29887 10.7722Z" fill="white" fill-opacity="0.85"/>
<path d="M4.6042 8.70897C4.82402 8.70897 4.99492 8.63833 5.13653 8.49534L6.29785 7.33711L7.47089 8.49534C7.6125 8.63695 7.78202 8.70897 8.00184 8.70897C8.40737 8.70897 8.72127 8.39508 8.72127 7.98368C8.72127 7.79968 8.64306 7.62706 8.50454 7.48855L7.32841 6.30794L8.50593 5.12456C8.64582 4.98467 8.72265 4.81343 8.72265 4.63081C8.72265 4.2208 8.40876 3.91138 8.00322 3.91138C7.79065 3.91138 7.61941 3.97616 7.47504 4.12054L6.29785 5.2891L5.13377 4.12639C4.99216 3.97893 4.82402 3.91415 4.6042 3.91415C4.19867 3.91415 3.88477 4.22218 3.88477 4.63219C3.88477 4.81482 3.96437 4.99329 4.1015 5.12595L5.28211 6.30794L4.1015 7.48993C3.96437 7.62706 3.88477 7.80554 3.88477 7.98368C3.88477 8.39508 4.19867 8.70897 4.6042 8.70897Z" fill="white" fill-opacity="0.85"/>
</g>
</svg>
