<svg width="40" height="40" viewBox="0 0 40 40" fill="none" xmlns="http://www.w3.org/2000/svg">
<defs>
<clipPath id="clip0_301_518">
<rect width="40" height="40" fill="white"/>
</clipPath>
</defs>
<g clip-path="url(#clip0_301_518)">
<mask id="mask0_301_518" style="mask-type:luminance" maskUnits="userSpaceOnUse" x="0" y="0" width="40" height="40">
<path d="M40 0H0V40H40V0Z" fill="white"/>
</mask>
<g mask="url(#mask0_301_518)">
<path d="M20 27.7082L21.7453 18.9329L20 8.01006C19.8964 8.00787 19.7926 8.00685 19.6884 8.00756C18.2278 8.01756 16.8328 8.31693 15.5574 8.8499L15.5588 8.84857L15.1432 7.88623L12.042 9.51443L8.01025 9.73951C8.01025 9.73951 9.22861 12.7777 9.83783 14.2968L9.83924 14.2954C9.17174 15.6946 8.79119 17.2546 8.77682 18.8982C8.76252 20.5309 9.10463 22.0821 9.72979 23.479C10.3222 24.8028 10.472 26.2728 10.2666 27.7085L20 27.7082Z" fill="#AD6D68"/>
<path d="M20 27.7082V8.01006C20.1036 8.00787 20.2074 8.00685 20.3116 8.00756C21.7722 8.01756 23.1672 8.31693 24.4427 8.8499L24.4412 8.84857L24.8568 7.88623L27.958 9.51443L31.9898 9.73951C31.9898 9.73951 30.7714 12.7777 30.1622 14.2968L30.1608 14.2954C30.8283 15.6946 31.2088 17.2546 31.2232 18.8982C31.2375 20.5309 30.8954 22.0821 30.2702 23.479C29.6778 24.8028 29.528 26.2728 29.7334 27.7085L20 27.7082Z" fill="#99584D"/>
<path d="M8.01025 9.73951L15.1432 7.88623L14.6755 13.5164C14.6755 14.5852 13.3811 15.118 12.6287 14.3589L8.01025 9.73951Z" fill="#C48174"/>
<path d="M31.9899 9.73951L24.8569 7.88623L25.3247 13.5164C25.3247 14.5852 26.619 15.118 27.3715 14.3589L31.9899 9.73951Z" fill="#AD6D68"/>
<path d="M20.0002 11.977C19.9228 11.9704 19.8447 11.9661 19.7656 11.9661C18.2169 11.9661 16.9849 13.2647 17.0663 14.8112L17.3854 20.8746C17.4547 22.1909 16.4291 23.3006 15.1118 23.349C15.0916 23.3497 15.0715 23.3505 15.0513 23.3515C12.4465 23.4774 10.3363 25.5955 10.2205 28.2008C10.0909 31.1162 12.4161 33.5205 15.3028 33.5205H20.0002L21.7455 23.2348L20.0002 11.977Z" fill="white"/>
<path d="M20 11.977C20.0773 11.9704 20.1555 11.9661 20.2346 11.9661C21.7833 11.9661 23.0152 13.2647 22.9339 14.8112L22.6148 20.8746C22.5455 22.1909 23.5711 23.3006 24.8884 23.349C24.9085 23.3497 24.9287 23.3505 24.9488 23.3515C27.5537 23.4774 29.6639 25.5955 29.7797 28.2008C29.9093 31.1162 27.5841 33.5205 24.6973 33.5205H20V11.977Z" fill="#E9EDF5"/>
<path d="M20.0004 24.9302H17.7308C17.0564 24.9302 16.5098 25.4768 16.5098 26.1512C16.5098 27.9494 17.9675 29.4072 19.7658 29.4072C19.8448 29.4072 19.9228 29.4034 20.0004 29.3979L21.5136 27.1687L20.0004 24.9302Z" fill="#555A65"/>
<path d="M20 24.9302H22.2696C22.944 24.9302 23.4906 25.4768 23.4906 26.1512C23.4906 27.9494 22.0329 29.4072 20.2346 29.4072C20.1556 29.4072 20.0776 29.4034 20 29.3979V24.9302Z" fill="#333940"/>
<path d="M14.9087 21.3129C15.5559 21.3129 16.0806 20.7882 16.0806 20.141C16.0806 19.4938 15.5559 18.9692 14.9087 18.9692C14.2615 18.9692 13.7368 19.4938 13.7368 20.141C13.7368 20.7882 14.2615 21.3129 14.9087 21.3129Z" fill="#555A65"/>
<path d="M25.2647 21.3129C25.9119 21.3129 26.4366 20.7882 26.4366 20.141C26.4366 19.4938 25.9119 18.9692 25.2647 18.9692C24.6175 18.9692 24.0928 19.4938 24.0928 20.141C24.0928 20.7882 24.6175 21.3129 25.2647 21.3129Z" fill="#333940"/>
</g>
</g>
</svg>
