<svg width="20" height="20" viewBox="0 0 20 20" fill="none" xmlns="http://www.w3.org/2000/svg">
<path fill-rule="evenodd" clip-rule="evenodd" d="M19.6011 10.2281C19.6017 9.54224 19.541 8.85768 19.4197 8.18262H10V12.0506H15.382C15.2709 12.6626 15.0368 13.2456 14.6938 13.7645C14.3508 14.2833 13.9061 14.7272 13.3865 15.0691V17.5787H16.6185C18.5096 15.8371 19.6006 13.2736 19.6006 10.2281H19.6011Z" fill="#3E82F1"/>
<path fill-rule="evenodd" clip-rule="evenodd" d="M9.99999 19.9999C12.7 19.9999 14.964 19.1044 16.6185 17.5774L13.3865 15.0679C12.491 15.6679 11.3455 16.0229 9.99999 16.0229C7.3955 16.0229 5.19044 14.2639 4.40449 11.8999H1.06348V14.4943C1.8965 16.15 3.17329 17.5416 4.75132 18.5138C6.32935 19.486 8.14652 20.0005 9.99999 19.9999Z" fill="#32A753"/>
<path fill-rule="evenodd" clip-rule="evenodd" d="M4.40503 11.9005C3.9863 10.6685 3.9863 9.33259 4.40503 8.10053V5.50952H1.06346C0.364155 6.90341 0 8.44134 0 10.0008C0 11.5603 0.364155 13.0982 1.06346 14.4921L4.40503 11.9005Z" fill="#F9BB00"/>
<path d="M1.06348 5.50955L4.40505 8.10056C5.19157 5.73652 7.39606 3.97753 10.0006 3.97753C11.4691 3.97753 12.7871 4.48315 13.8236 5.47303L16.6921 2.60449C14.9601 0.991012 12.6966 6.14178e-07 9.99999 6.14178e-07C8.14603 -0.000649154 6.32841 0.514278 4.75027 1.48724C3.17213 2.46019 1.89564 3.85284 1.06348 5.50955Z" fill="#E74133"/>
</svg>
