<svg width="20" height="20" viewBox="0 0 20 20" fill="none" xmlns="http://www.w3.org/2000/svg">
<defs>
<clipPath id="clip0_309_588">
<rect width="20" height="20" fill="white"/>
</clipPath>
</defs>
<g clip-path="url(#clip0_309_588)">
<path d="M10 20C12.6522 20 15.1957 18.9464 17.0711 17.0711C18.9464 15.1957 20 12.6522 20 10C20 7.34784 18.9464 4.8043 17.0711 2.92893C15.1957 1.05357 12.6522 0 10 0C7.34784 0 4.8043 1.05357 2.92893 2.92893C1.05357 4.8043 0 7.34784 0 10C0 12.6522 1.05357 15.1957 2.92893 17.0711C4.8043 18.9464 7.34784 20 10 20ZM8.4375 13.125H9.375V10.625H8.4375C7.91797 10.625 7.5 10.207 7.5 9.6875C7.5 9.16797 7.91797 8.75 8.4375 8.75H10.3125C10.832 8.75 11.25 9.16797 11.25 9.6875V13.125H11.5625C12.082 13.125 12.5 13.543 12.5 14.0625C12.5 14.582 12.082 15 11.5625 15H8.4375C7.91797 15 7.5 14.582 7.5 14.0625C7.5 13.543 7.91797 13.125 8.4375 13.125ZM10 5C10.3315 5 10.6495 5.1317 10.8839 5.36612C11.1183 5.60054 11.25 5.91848 11.25 6.25C11.25 6.58152 11.1183 6.89946 10.8839 7.13388C10.6495 7.3683 10.3315 7.5 10 7.5C9.66848 7.5 9.35054 7.3683 9.11612 7.13388C8.8817 6.89946 8.75 6.58152 8.75 6.25C8.75 5.91848 8.8817 5.60054 9.11612 5.36612C9.35054 5.1317 9.66848 5 10 5Z" fill="black"/>
</g>
</svg>
