<svg width="22" height="20" viewBox="0 0 22 20" fill="none" xmlns="http://www.w3.org/2000/svg">
<path fill-rule="evenodd" clip-rule="evenodd" d="M15.9019 0.25H6.07717C2.643 0.25 0.166504 3.0255 0.166504 6.59725V13.4028C0.166504 16.9756 2.64409 19.75 6.07717 19.75H15.8922C16.7067 19.7415 17.5109 19.5668 18.2554 19.2365C19 18.9062 19.6693 18.4273 20.2223 17.8293C20.7763 17.2293 21.2034 16.5237 21.4782 15.7547C21.753 14.9857 21.8696 14.1692 21.8213 13.354L21.8234 6.59725C21.8669 5.78977 21.7475 4.9818 21.4724 4.22137C21.1974 3.46094 20.7722 2.76358 20.2223 2.17075C19.6706 1.5736 19.0029 1.09526 18.2601 0.765001C17.5172 0.434741 16.7148 0.259501 15.9019 0.25ZM6.07717 1.90533H15.8835C16.4737 1.91236 17.0562 2.03973 17.5955 2.27965C18.1347 2.51957 18.6194 2.867 19.0198 3.30067C19.422 3.73598 19.7322 4.24803 19.9317 4.80612C20.1313 5.36421 20.2161 5.95684 20.1811 6.5485L20.1789 13.4028C20.2188 14.0021 20.1367 14.6033 19.9374 15.1699C19.7382 15.7366 19.426 16.2569 19.0198 16.6993C18.6194 17.133 18.1347 17.4804 17.5955 17.7203C17.0562 17.9603 16.4737 18.0876 15.8835 18.0947H6.07717C3.59309 18.0947 1.80992 16.097 1.80992 13.4028V6.59725C1.80992 3.903 3.59309 1.90642 6.07825 1.90642L6.07717 1.90533ZM17.5258 6.35783C17.4588 6.27312 17.3756 6.20254 17.2811 6.15016C17.1866 6.09777 17.0827 6.06463 16.9753 6.05265C16.8679 6.04066 16.7592 6.05007 16.6555 6.08032C16.5518 6.11058 16.4551 6.16108 16.371 6.22892L11.9293 9.80933L11.8026 9.89925C11.5417 10.0609 11.2374 10.1384 10.931 10.1211C10.6246 10.1039 10.3309 9.99276 10.0898 9.80283L5.61567 6.22783L5.516 6.1585C5.34541 6.05949 5.14478 6.02547 4.95108 6.0627C4.75738 6.09992 4.58366 6.20589 4.46192 6.36108C4.32618 6.5333 4.26391 6.75214 4.28866 6.97002C4.31341 7.1879 4.42318 7.3872 4.59409 7.52458L9.07367 11.105L9.24809 11.2318C9.79778 11.6075 10.453 11.7983 11.1185 11.7762C11.784 11.7542 12.4251 11.5206 12.9488 11.1093L17.398 7.52242L17.4868 7.439C17.6212 7.29303 17.6989 7.10386 17.7061 6.90562C17.7132 6.70738 17.6493 6.51311 17.5258 6.35783Z" fill="black"/>
</svg>
