<svg width="4" height="12" viewBox="0 0 4 12" fill="none" xmlns="http://www.w3.org/2000/svg">
<path d="M1.58326 3.00001C2.40826 3.00001 3.08326 2.32501 3.08326 1.5C3.08326 0.675002 2.40826 0 1.58326 0C0.758254 0 0.083252 0.675002 0.083252 1.5C0.083252 2.32501 0.758254 3.00001 1.58326 3.00001ZM1.58326 4.50001C0.758254 4.50001 0.083252 5.17502 0.083252 6.00002C0.083252 6.82502 0.758254 7.50002 1.58326 7.50002C2.40826 7.50002 3.08326 6.82502 3.08326 6.00002C3.08326 5.17502 2.40826 4.50001 1.58326 4.50001ZM1.58326 9.00003C0.758254 9.00003 0.083252 9.67503 0.083252 10.5C0.083252 11.325 0.758254 12 1.58326 12C2.40826 12 3.08326 11.325 3.08326 10.5C3.08326 9.67503 2.40826 9.00003 1.58326 9.00003Z" fill="#A1B3C8"/>
</svg>
