<svg width="16" height="16" viewBox="0 0 16 16" fill="none" xmlns="http://www.w3.org/2000/svg">
<g clip-path="url(#clip0_196_975)">
<path d="M15.3334 8.00008C15.3334 7.26341 14.7367 6.66675 14.0001 6.66675H13.1587C13.0327 6.17875 12.8407 5.71875 12.5907 5.29475L13.1854 4.70008C13.7061 4.17941 13.7061 3.33541 13.1854 2.81475C12.6647 2.29408 11.8207 2.29408 11.3001 2.81475L10.7054 3.40941C10.2814 3.15941 9.82141 2.96741 9.33341 2.84141V2.00008C9.33341 1.26408 8.73675 0.666748 8.00008 0.666748C7.26341 0.666748 6.66675 1.26341 6.66675 2.00008V2.84141C6.17875 2.96741 5.71875 3.15941 5.29475 3.40941L4.70008 2.81475C4.17941 2.29408 3.33541 2.29408 2.81475 2.81475C2.29408 3.33541 2.29408 4.17941 2.81475 4.70008L3.40941 5.29475C3.15941 5.71875 2.96741 6.17875 2.84141 6.66675H2.00008C1.26408 6.66675 0.666748 7.26341 0.666748 8.00008C0.666748 8.73675 1.26341 9.33341 2.00008 9.33341H2.84141C2.96741 9.82141 3.15941 10.2814 3.40941 10.7054L2.81475 11.3001C2.29408 11.8207 2.29408 12.6647 2.81475 13.1854C3.33541 13.7061 4.17941 13.7061 4.70008 13.1854L5.29475 12.5907C5.71808 12.8407 6.17875 13.0327 6.66675 13.1587V14.0001C6.66675 14.7361 7.26341 15.3334 8.00008 15.3334C8.73675 15.3334 9.33341 14.7367 9.33341 14.0001V13.1587C9.82141 13.0327 10.2814 12.8407 10.7054 12.5907L11.3001 13.1854C11.8207 13.7061 12.6647 13.7061 13.1854 13.1854C13.7061 12.6647 13.7061 11.8207 13.1854 11.3001L12.5907 10.7054C12.8407 10.2821 13.0327 9.82141 13.1587 9.33341H14.0001C14.7361 9.33341 15.3334 8.73675 15.3334 8.00008Z" stroke="#373E4C" stroke-width="1.5" stroke-linecap="round" stroke-linejoin="round"/>
<path d="M8 10C9.10457 10 10 9.10457 10 8C10 6.89543 9.10457 6 8 6C6.89543 6 6 6.89543 6 8C6 9.10457 6.89543 10 8 10Z" stroke="#373E4C" stroke-width="1.5" stroke-linecap="round" stroke-linejoin="round"/>
</g>
<defs>
<clipPath id="clip0_196_975">
<rect width="16" height="16" fill="white"/>
</clipPath>
</defs>
</svg>
