<svg width="16" height="20" viewBox="0 0 16 20" fill="none" xmlns="http://www.w3.org/2000/svg">
<path d="M10.8279 7.87715C11.21 7.50816 11.5147 7.06679 11.7243 6.57877C11.934 6.09075 12.0443 5.56587 12.0489 5.03476C12.0535 4.50364 11.9523 3.97692 11.7512 3.48534C11.5501 2.99375 11.2531 2.54714 10.8775 2.17157C10.5019 1.796 10.0553 1.49899 9.56373 1.29787C9.07215 1.09674 8.54543 0.995536 8.01431 1.00015C7.4832 1.00477 6.95832 1.11511 6.4703 1.32475C5.98228 1.53438 5.54091 1.83911 5.17192 2.22115C4.44329 2.97556 4.04011 3.98597 4.04922 5.03476C4.05834 6.08354 4.47901 7.08679 5.22065 7.82843C5.96228 8.57006 6.96553 8.99073 8.01431 8.99985C9.0631 9.00896 10.0735 8.60578 10.8279 7.87715V7.87715Z" stroke="#111111" stroke-width="1.8" stroke-linecap="round" stroke-linejoin="round"/>
<path d="M3.05 14.0992C4.02897 13.1201 5.2763 12.4533 6.63423 12.1832C7.99216 11.913 9.39971 12.0517 10.6789 12.5815C11.958 13.1114 13.0513 14.0087 13.8204 15.1599C14.5896 16.3111 15.0001 17.6646 15 19.0492H1C0.999934 18.1299 1.18094 17.2196 1.53268 16.3703C1.88442 15.5209 2.40001 14.7492 3.05 14.0992V14.0992Z" stroke="#111111" stroke-width="1.8" stroke-linecap="round" stroke-linejoin="round"/>
</svg>
