<svg width="13" height="17" viewBox="0 0 13 17" fill="none" xmlns="http://www.w3.org/2000/svg">
<g clip-path="url(#clip0_197_994)">
<path d="M1.02226 16.9684C1.4948 16.9684 1.77448 16.7469 2.64242 16.0586L6.41319 13.0131C6.46141 12.9735 6.5482 12.9735 6.58677 13.0131L10.3576 16.0586C11.2255 16.7469 11.5052 16.9684 11.9777 16.9684C12.6238 16.9684 13 16.6203 13 16.0033V2.27036C13 0.767335 12.0838 0 10.2708 0H2.72922C0.916169 0 0 0.767335 0 2.27036V16.0033C0 16.6203 0.376111 16.9684 1.02226 16.9684ZM1.81305 14.8325C1.67804 14.9433 1.52374 14.9116 1.52374 14.7534V2.28619C1.52374 1.60586 1.95771 1.24989 2.80637 1.24989H10.2032C11.0422 1.24989 11.4762 1.60586 11.4762 2.28619V14.7534C11.4762 14.9116 11.3316 14.9433 11.1869 14.8325L7.01111 11.51C6.7025 11.2647 6.29746 11.2647 5.98885 11.51L1.81305 14.8325Z" fill="#373E4C"/>
</g>
<defs>
<clipPath id="clip0_197_994">
<rect width="13" height="17" fill="white"/>
</clipPath>
</defs>
</svg>
