<svg width="24" height="24" viewBox="0 0 24 24" fill="none" xmlns="http://www.w3.org/2000/svg">
<path d="M14.619 22.9999C14.4244 22.9998 14.2336 22.9457 14.0679 22.8434C13.9023 22.7412 13.7683 22.5949 13.681 22.4209L10.572 16.1999C10.4882 16.0317 10.4509 15.8442 10.4641 15.6567C10.4773 15.4692 10.5404 15.2887 10.647 15.1339L15.667 8.33393L8.86702 13.3519C8.71243 13.4585 8.53208 13.5217 8.34477 13.5349C8.15745 13.5481 7.97003 13.5108 7.80202 13.4269L1.57902 10.3179C1.39694 10.2262 1.24559 10.0833 1.1435 9.90677C1.04141 9.73027 0.993031 9.52783 1.00428 9.32424C1.01553 9.12065 1.08593 8.92477 1.20684 8.76059C1.32776 8.59641 1.49394 8.47107 1.68502 8.39993L21.59 1.06393C21.7778 0.994547 21.9815 0.980443 22.177 1.02329C22.3726 1.06614 22.5517 1.16414 22.6933 1.30568C22.8348 1.44723 22.9328 1.62638 22.9757 1.82191C23.0185 2.01745 23.0044 2.22117 22.935 2.40893L15.6 22.3149C15.5294 22.5067 15.4042 22.6736 15.2398 22.7949C15.0754 22.9163 14.8791 22.9869 14.675 22.9979L14.619 22.9999Z" fill="#A1B3C8"/>
</svg>
