<svg width="6" height="5" viewBox="0 0 6 5" fill="none" xmlns="http://www.w3.org/2000/svg">
<path d="M2.2689 0.241763C2.3739 -0.0805875 2.82995 -0.0805875 2.9346 0.241763L3.3091 1.39396C3.33198 1.46413 3.37646 1.52528 3.43617 1.56865C3.49589 1.61202 3.56779 1.63541 3.6416 1.63546H4.8533C5.19245 1.63546 5.33315 2.06946 5.0591 2.26896L4.0791 2.98086C4.01926 3.02427 3.9747 3.08552 3.95182 3.15581C3.92893 3.22611 3.92889 3.30184 3.9517 3.37216L4.3262 4.52436C4.4312 4.84671 4.06195 5.11516 3.7872 4.91566L2.8072 4.20376C2.74742 4.16036 2.67544 4.13699 2.60157 4.13699C2.5277 4.13699 2.45573 4.16036 2.39595 4.20376L1.41595 4.91566C1.14155 5.11516 0.772649 4.84671 0.877299 4.52436L1.2518 3.37216C1.27461 3.30184 1.27457 3.22611 1.25168 3.15581C1.2288 3.08552 1.18424 3.02427 1.1244 2.98086L0.144749 2.26931C-0.129301 2.06981 0.0117488 1.63581 0.350549 1.63581H1.5619C1.63577 1.63583 1.70774 1.61248 1.76753 1.5691C1.82732 1.52572 1.87185 1.46454 1.89475 1.39431L2.26925 0.242113L2.2689 0.241763Z" fill="white"/>
</svg>
